<svg width="500" height="500" viewBox="0 0 500 500" fill="none" xmlns="http://www.w3.org/2000/svg">
<rect x="466" y="320" width="17" height="171" rx="8.5" fill="#FAFAFA"/>
<rect x="432" y="286" width="17" height="171" rx="8.5" fill="#FAFAFA"/>
<rect x="51" y="286" width="17" height="171" rx="8.5" fill="#FAFAFA"/>
<rect x="17" y="320" width="17" height="171" rx="8.5" fill="#FAFAFA"/>
<ellipse cx="250" cy="64.5" rx="56" ry="56.5" fill="#FAFAFA"/>
<path d="M137 207C137 162.817 172.817 127 217 127H283C327.183 127 363 162.817 363 207V229C363 235.627 357.627 241 351 241H149C142.373 241 137 235.627 137 229V207Z" fill="#FAFAFA"/>
<path d="M15.1122 267.641C16.2364 262.034 21.1601 258 26.8779 258H473.122C478.84 258 483.764 262.034 484.888 267.641L497.12 328.641C498.61 336.068 492.93 343 485.355 343H14.6453C7.07026 343 1.39015 336.068 2.87957 328.641L15.1122 267.641Z" fill="#FAFAFA"/>
</svg>
