<svg width="16" height="16" viewBox="0 0 16 16" fill="none" xmlns="http://www.w3.org/2000/svg">
<mask id="mask0_144_370" style="mask-type:luminance" maskUnits="userSpaceOnUse" x="0" y="0" width="16" height="16">
<path d="M15.3547 0.0263672H0.600342V15.2397H15.3547V0.0263672Z" fill="white"/>
</mask>
<g mask="url(#mask0_144_370)">
<path d="M3.8137 8.32803H7.18868C7.44082 8.32803 7.64126 8.13405 7.64126 7.87545V3.51767C7.64126 3.26552 7.44082 3.07155 7.18868 3.07155C6.93655 3.07155 6.74256 3.26552 6.74256 3.51767V7.42933H3.8137C3.55508 7.42933 3.36112 7.62326 3.36112 7.87545C3.36112 8.13405 3.55508 8.32803 3.8137 8.32803ZM7.19514 14.2246C10.8029 14.2246 13.79 11.231 13.79 7.62971C13.79 4.02199 10.7965 1.03491 7.18868 1.03491C3.58741 1.03491 0.600342 4.02199 0.600342 7.62971C0.600342 11.231 3.59388 14.2246 7.19514 14.2246ZM7.19514 13.1254C4.14345 13.1254 1.70595 10.6815 1.70595 7.62971C1.70595 4.57802 4.13698 2.13405 7.18868 2.13405C10.2404 2.13405 12.6909 4.57802 12.6909 7.62971C12.6909 10.6815 10.2469 13.1254 7.19514 13.1254Z" fill="black" fill-opacity="0.85"/>
<path d="M12.2318 6.27205C13.9387 6.27205 15.3547 4.86257 15.3547 3.14922C15.3547 1.42939 13.9387 0.0263672 12.2318 0.0263672C10.512 0.0263672 9.10901 1.42939 9.10901 3.14922C9.10901 4.86257 10.512 6.27205 12.2318 6.27205Z" fill="white"/>
<path d="M12.2318 5.38636C13.4538 5.38636 14.4753 4.37775 14.4753 3.1493C14.4753 1.91439 13.4538 0.905762 12.2318 0.905762C11.0034 0.905762 9.98828 1.91439 9.98828 3.1493C9.98828 4.37775 11.0034 5.38636 12.2318 5.38636Z" fill="black" fill-opacity="0.85"/>
</g>
</svg>
