<svg width="16" height="15" viewBox="0 0 16 15" fill="none" xmlns="http://www.w3.org/2000/svg">
<mask id="mask0_144_378" style="mask-type:luminance" maskUnits="userSpaceOnUse" x="0" y="1" width="16" height="12">
<path d="M15.8898 1.60327H0.00219727V12.8109H15.8898V1.60327Z" fill="white"/>
</mask>
<g mask="url(#mask0_144_378)">
<path d="M4.15135 12.8048H11.7481C12.7521 12.8048 13.23 12.5024 13.23 11.8371C13.23 10.2524 11.228 7.9601 7.94975 7.9601C4.66547 7.9601 2.66345 10.2524 2.66345 11.8371C2.66345 12.5024 3.14127 12.8048 4.15135 12.8048ZM3.86103 11.8916C3.70378 11.8916 3.63724 11.8492 3.63724 11.7222C3.63724 10.7242 5.17354 8.87339 7.94975 8.87339C10.7199 8.87339 12.2562 10.7242 12.2562 11.7222C12.2562 11.8492 12.1957 11.8916 12.0384 11.8916H3.86103ZM7.94975 7.20407C9.38928 7.20407 10.5626 5.92789 10.5626 4.36738C10.5626 2.819 9.39532 1.60327 7.94975 1.60327C6.5163 1.60327 5.33685 2.84319 5.33685 4.37948C5.33685 5.93393 6.5163 7.20407 7.94975 7.20407ZM7.94975 6.29078C7.0667 6.29078 6.31068 5.45006 6.31068 4.37948C6.31068 3.32706 7.05463 2.51658 7.94975 2.51658C8.85096 2.51658 9.58887 3.30892 9.58887 4.36738C9.58887 5.43793 8.84492 6.29078 7.94975 6.29078Z" fill="black" fill-opacity="0.85"/>
<path d="M0.165504 4.69394L1.78647 5.89755C2.12518 6.15159 2.52437 6.00042 2.52437 5.58307V4.8391H4.08486C4.35099 4.8391 4.56268 4.63345 4.56268 4.36733C4.56268 4.10724 4.35099 3.89555 4.08486 3.89555H2.52437V3.1637C2.52437 2.72821 2.11308 2.60119 1.78647 2.84313L0.165504 4.05281C-0.0522382 4.22217 -0.0522382 4.53063 0.165504 4.69394ZM11.3308 4.36733C11.3308 4.63345 11.5365 4.8391 11.8026 4.8391H13.3631V5.58307C13.3631 6.00042 13.7684 6.15159 14.101 5.89755L15.722 4.69394C15.9458 4.53063 15.9458 4.22217 15.722 4.05281L14.101 2.84313C13.7804 2.60119 13.3631 2.72821 13.3631 3.1637V3.89555H11.8026C11.5365 3.89555 11.3308 4.10724 11.3308 4.36733Z" fill="black" fill-opacity="0.85"/>
</g>
</svg>
