<svg width="16" height="15" viewBox="0 0 16 15" fill="none" xmlns="http://www.w3.org/2000/svg">
<mask id="mask0_144_385" style="mask-type:luminance" maskUnits="userSpaceOnUse" x="0" y="1" width="16" height="11">
<path d="M15.5692 1.96997H0.0407715V11.7143H15.5692V1.96997Z" fill="white"/>
</mask>
<g mask="url(#mask0_144_385)">
<path d="M7.80781 11.7142C12.3987 11.7142 15.5692 8.00399 15.5692 6.84491C15.5692 5.68011 12.3931 1.97559 7.80781 1.97559C3.27941 1.97559 0.0407715 5.68011 0.0407715 6.84491C0.0407715 8.00399 3.27373 11.7142 7.80781 11.7142ZM7.80781 10.8165C4.0635 10.8165 1.03509 7.64603 1.03509 6.84491C1.03509 6.16874 4.0635 2.87331 7.80781 2.87331C11.5351 2.87331 14.5749 6.16874 14.5749 6.84491C14.5749 7.64603 11.5351 10.8165 7.80781 10.8165ZM7.80781 10.0267C9.57489 10.0267 10.9953 8.57786 10.9953 6.84491C10.9953 5.06649 9.57489 3.66309 7.80781 3.66309C6.02943 3.66309 4.60895 5.06649 4.60895 6.84491C4.60895 8.57786 6.02943 10.0267 7.80781 10.0267ZM7.80781 7.90174C7.21692 7.90174 6.73964 7.42445 6.73964 6.84491C6.73964 6.25965 7.21692 5.78809 7.80781 5.78809C8.39307 5.78809 8.87031 6.25965 8.87031 6.84491C8.87031 7.42445 8.39307 7.90174 7.80781 7.90174Z" fill="black" fill-opacity="0.85"/>
</g>
</svg>
