<svg width="29" height="29" viewBox="0 0 29 29" fill="none" xmlns="http://www.w3.org/2000/svg">
<mask id="mask0_205_148" style="mask-type:luminance" maskUnits="userSpaceOnUse" x="1" y="2" width="27" height="24">
<path d="M27.2672 2.04761H1.08594V25.9656H27.2672V2.04761Z" fill="white"/>
</mask>
<g mask="url(#mask0_205_148)">
<path d="M15.3141 25.9538C21.8415 25.9538 27.2673 20.5281 27.2673 14.0007C27.2673 7.46167 21.8415 2.04761 15.3141 2.04761C8.77502 2.04761 3.36096 7.44995 3.36096 13.989H5.35315C5.35315 8.45777 9.78283 4.05152 15.3141 4.05152C20.8454 4.05152 25.2751 8.46949 25.2751 14.0007C25.2751 19.532 20.8454 23.9851 15.3141 23.9617C11.9743 23.9499 9.04455 22.3328 7.25158 19.8367C6.8883 19.3562 6.33752 19.2038 5.84533 19.4968C5.37658 19.7898 5.24768 20.4343 5.64611 20.9499C7.87268 23.9382 11.3649 25.9538 15.3141 25.9538ZM1.91955 11.739C1.0758 11.739 0.864863 12.3132 1.3219 12.9695L3.9469 16.696C4.33361 17.2351 4.89611 17.2234 5.27111 16.696L7.89611 12.9578C8.34143 12.3132 8.13049 11.739 7.29846 11.739H1.91955Z" fill="#FAFAFA"/>
<path d="M15.0566 7.00464C14.4473 7.00464 13.9551 7.49683 13.9551 8.1062V14.7507C13.9551 15.032 14.0371 15.3015 14.2715 15.5945L17.1074 19.3445C17.5762 19.9538 18.209 20.0593 18.7832 19.6726C19.3105 19.3093 19.3457 18.6414 18.9355 18.0671L14.8691 12.5476L16.1699 16.5554V8.1062C16.1699 7.49683 15.666 7.00464 15.0566 7.00464Z" fill="#FAFAFA"/>
</g>
</svg>
