<svg width="14" height="15" viewBox="0 0 14 15" fill="none" xmlns="http://www.w3.org/2000/svg">
<rect x="0.5" y="3.5" width="11" height="11" rx="1.5" fill="white" stroke="#72C6FF"/>
<mask id="mask0_181_179" style="mask-type:luminance" maskUnits="userSpaceOnUse" x="2" y="0" width="12" height="13">
<path d="M14 0H2V12.2925H14V0Z" fill="white"/>
</mask>
<g mask="url(#mask0_181_179)">
<path d="M6.54091 12.2927C6.84039 12.2927 7.07719 12.1603 7.24434 11.9026L13.8258 1.53929C13.9512 1.33732 14 1.1841 14 1.02392C14 0.640861 13.7492 0.390137 13.3662 0.390137C13.0876 0.390137 12.9344 0.480677 12.7673 0.745335L6.51306 10.7117L3.26755 6.46329C3.09344 6.2195 2.91933 6.12204 2.6686 6.12204C2.27162 6.12204 2 6.39364 2 6.77667C2 6.9369 2.06965 7.11799 2.20197 7.28511L5.8166 11.8887C6.02554 12.1603 6.24144 12.2927 6.54091 12.2927Z" fill="#72C6FF"/>
</g>
</svg>
