<svg width="24" height="24" viewBox="0 0 24 24" fill="none" xmlns="http://www.w3.org/2000/svg">
<mask id="mask0_141_349" style="mask-type:luminance" maskUnits="userSpaceOnUse" x="1" y="5" width="21" height="14">
<path d="M21.2389 5.04077H1.6969V18.7056H21.2389V5.04077Z" fill="white"/>
</mask>
<g mask="url(#mask0_141_349)">
<path d="M8.17532 18.5214H20.4534C20.8898 18.5214 21.2389 18.182 21.2389 17.7456C21.2389 17.2994 20.8898 16.96 20.4534 16.96H8.17532C7.7292 16.96 7.38977 17.2994 7.38977 17.7456C7.38977 18.182 7.7292 18.5214 8.17532 18.5214Z" fill="#181818"/>
<path d="M2.65702 18.7056H4.31543C4.84884 18.7056 5.28526 18.2692 5.28526 17.7455C5.28526 17.2023 4.84884 16.7756 4.31543 16.7756H2.65702C2.12362 16.7756 1.6969 17.2023 1.6969 17.7455C1.6969 18.2692 2.12362 18.7056 2.65702 18.7056Z" fill="#181818"/>
<path d="M8.17532 12.6638H20.4534C20.8898 12.6638 21.2389 12.3146 21.2389 11.8782C21.2389 11.4418 20.8898 11.1023 20.4534 11.1023H8.17532C7.7292 11.1023 7.38977 11.4418 7.38977 11.8782C7.38977 12.3146 7.7292 12.6638 8.17532 12.6638Z" fill="#181818"/>
<path d="M2.65702 12.8479H4.31543C4.84884 12.8479 5.28526 12.4115 5.28526 11.8781C5.28526 11.3447 4.84884 10.918 4.31543 10.918H2.65702C2.12362 10.918 1.6969 11.3447 1.6969 11.8781C1.6969 12.4115 2.12362 12.8479 2.65702 12.8479Z" fill="#181818"/>
<path d="M8.17532 6.79628H20.4534C20.8898 6.79628 21.2389 6.45684 21.2389 6.02042C21.2389 5.5743 20.8898 5.23486 20.4534 5.23486H8.17532C7.7292 5.23486 7.38977 5.5743 7.38977 6.02042C7.38977 6.45684 7.7292 6.79628 8.17532 6.79628Z" fill="#181818"/>
<path d="M2.65702 6.98049H4.31543C4.84884 6.98049 5.28526 6.54407 5.28526 6.02036C5.28526 5.47726 4.84884 5.05054 4.31543 5.05054H2.65702C2.12362 5.05054 1.6969 5.47726 1.6969 6.02036C1.6969 6.54407 2.12362 6.98049 2.65702 6.98049Z" fill="#181818"/>
</g>
</svg>
